<?xml version="1.0" encoding="UTF-8"?>
<svg id="Laag_1" data-name="Laag 1" xmlns="http://www.w3.org/2000/svg" viewBox="0 0 35.53 23.8">
  <defs>
    <style>
      .cls-1 {
        fill: #fffffe;
      }

      .cls-1, .cls-2, .cls-3 {
        fill-rule: evenodd;
      }

      .cls-2 {
        fill: #d7d8d6;
      }

      .cls-3 {
        fill: #ff6d00;
      }
    </style>
  </defs>
  <path class="cls-2" d="M23.07,13.43l-9.65,9.64c-.97.97-2.09.97-3.06,0L.73,13.43c-.97-.97-.97-2.08,0-3.06L10.37.73c.97-.97,2.08-.97,3.06,0l9.65,9.64c.97.97.97,2.08,0,3.06"/>
  <path class="cls-3" d="M9.34,7.65l-.7-.7c-.29-.29-.57-.28-.9.05l-.61.62c-.33.33-.34.6-.04.89l.71.7c.29.29.57.28.89-.05l.62-.62c.33-.33.34-.6.05-.89M10.11,6.91c.73.73.74,1.6-.08,2.41l-.62.62c-.21.21-.39.32-.54.36l.54.54c.27.27.23.57.03.78-.21.21-.51.25-.78-.02l-2.35-2.35c-.73-.73-.74-1.6.08-2.41l.58-.58c.82-.82,1.69-.8,2.41-.08l.73.73ZM13.01,3.99l-.7-.71c-.29-.29-.57-.28-.9.05l-.62.62c-.33.33-.34.6-.04.89l.7.7c.29.29.57.28.9-.05l.61-.62c.33-.33.34-.6.05-.89M13.78,3.24c.73.73.74,1.6-.08,2.41l-.58.58c-.81.82-1.69.8-2.41.07l-.73-.73c-.73-.73-.74-1.6.08-2.41l.58-.58c.81-.82,1.69-.8,2.41-.08l.73.73h0ZM7.2,11.47c.27.27.23.58.02.78-.21.21-.51.24-.78-.03l-1.54-1.54c-.29-.29-.57-.28-.89.05l-.62.61c-.33.33-.34.6-.05.89l1.54,1.54c.27.27.24.57.03.78-.21.21-.51.25-.78-.02l-1.55-1.56c-.73-.73-.74-1.6.08-2.41l.58-.58c.82-.81,1.69-.8,2.41-.07l1.56,1.55ZM12.45,10.37c-.97.97-.97,2.08,0,3.06l9.64,9.64c.97.97,2.08.97,3.06,0l9.65-9.64c.97-.97.97-2.09,0-3.06L25.15.73c-.97-.97-2.08-.97-3.06,0l-9.64,9.64Z"/>
  <path class="cls-1" d="M17.36,11.43c-.45-.11-.6-.15-.6-.35,0-.27.38-.31.61-.31.21,0,.47.05.7.13.06.02.12.04.18.04.16,0,.24-.12.29-.25l.04-.09c.02-.05.04-.11.04-.17,0-.14-.09-.24-.24-.3-.32-.11-.65-.17-.99-.16-1,0-1.57.42-1.57,1.16,0,.82.68.97,1.41,1.14h.01c.4.09.59.14.59.36,0,.08,0,.32-.66.32-.26,0-.54-.05-.84-.16-.06-.02-.12-.03-.18-.04-.16,0-.24.12-.29.25l-.04.1c-.02.05-.04.11-.04.17,0,.14.09.24.24.3.3.12.69.18,1.15.18,1.03,0,1.6-.42,1.6-1.17,0-.82-.68-.98-1.41-1.15h0ZM25.29,11.59l-2.39-1.5c-.14-.09-.33-.05-.41.09-.03.05-.05.1-.05.16v3c0,.17.13.3.3.3.06,0,.11-.02.16-.05l2.39-1.5c.14-.09.18-.27.09-.41-.02-.04-.06-.07-.09-.09M21.81,13.12c-.03-.15-.11-.22-.25-.22-.05,0-.09,0-.14.02-.06,0-.12.01-.18.01-.37,0-.59-.11-.59-.68v-1.39h.82c.25,0,.36-.11.36-.36v-.1c0-.24-.11-.36-.36-.36h-.82v-.52c0-.24-.11-.36-.36-.36h-.22c-.25,0-.36.11-.36.36v.52h-.21c-.25,0-.36.11-.36.36v.1c0,.24.11.36.36.36h.21v1.47c0,.96.46,1.42,1.41,1.42.16,0,.32-.02.48-.05.18-.03.27-.14.27-.3,0-.05-.01-.1-.02-.15l-.03-.13ZM31.29,13.25l-.03-.13c-.03-.15-.11-.22-.25-.22-.05,0-.09,0-.14.02-.06,0-.12.01-.18.01-.36,0-.59-.11-.59-.68v-1.39h.82c.25,0,.36-.11.36-.36v-.1c0-.24-.11-.36-.36-.36h-.82v-.52c0-.24-.11-.36-.36-.36h-.22c-.25,0-.36.11-.36.36v.52h-.21c-.25,0-.36.11-.36.36v.1c0,.24.11.36.36.36h.21v1.47c0,.96.46,1.42,1.41,1.42.18,0,.35-.03.48-.05.17-.03.27-.14.27-.3,0-.05-.01-.1-.02-.15h0ZM28.18,10.31s0,.11-.01.14v.07c-.06.2-.12.32-.33.32-.04,0-.1,0-.16-.01-.09,0-.19-.02-.31-.02-.16,0-.37.02-.51.06v2.44c0,.24-.11.36-.36.36h-.22c-.25,0-.36-.11-.36-.36v-2.76c0-.23.11-.37.33-.43.53-.15,1.08-.19,1.63-.13.2.02.31.14.31.32h0Z"/>
</svg>